<svg xmlns="http://www.w3.org/2000/svg" width="32" height="32"><defs/><defs><clipPath id="a"><path d="M0 0h32v32H0z"/></clipPath></defs><g fill="#fff" clip-path="url(#a)"><path d="M32 32H0V0h32v32zM8.481 25.987A12.391 12.391 0 0016 28.5 12.514 12.514 0 0028.5 16 12.514 12.514 0 0016 3.5 12.514 12.514 0 003.5 16a12.412 12.412 0 002.406 7.376l-1.953 5.112 4.527-2.5z"/><path d="M17.142 10.8l-3.57 10.363h-2.645L7.4 10.8h3.065l1.611 6.412c.116.39.217 1.024.253 1.033.021.01.108-.677.224-1.062l1.5-6.383z"/><path d="M15.41 21.163V10.8h3.671q5.521 0 5.521 5.051a5.108 5.108 0 01-1.507 3.866 5.556 5.556 0 01-4.014 1.445zm2.634-7.512v4.719H19.2c1.012 0 1.305 0 1.881-.611a2.173 2.173 0 00.764-1.879 2.484 2.484 0 00-.756-1.681 3.812 3.812 0 00-1.9-.549 9.5 9.5 0 00-1.142.001z"/></g></svg>